<svg xmlns="http://www.w3.org/2000/svg" version="1.1" xmlns:xlink="http://www.w3.org/1999/xlink" xmlns:svgjs="http://svgjs.dev/svgjs" width="1440" height="560" preserveAspectRatio="none" viewBox="0 0 1440 560"><g mask="url(&quot;#SvgjsMask1002&quot;)" fill="none"><rect width="1440" height="560" x="0" y="0" fill="rgba(246, 252, 250, 1)"></rect><path d="M777.95 600.55C898.68 553.67 820.42 205.02 1088.96 186.25 1357.51 167.48 1552.46 63.64 1710.99 63.05" stroke="rgba(59, 175, 164, 1)" stroke-width="2"></path><path d="M794.65 627.44C904.78 623.73 974.43 462.47 1199.1 452.21 1423.76 441.95 1488.83 240.64 1603.54 233.81" stroke="rgba(59, 175, 164, 1)" stroke-width="2"></path><path d="M441.65 586.84C560.8 580.57 650.66 369.17 866.09 368.61 1081.53 368.05 1078.31 438.61 1290.54 438.61 1502.76 438.61 1607.44 368.84 1714.98 368.61" stroke="rgba(59, 175, 164, 1)" stroke-width="2"></path><path d="M452.15 600.19C609.89 594.83 714.56 360.05 1031.18 348.63 1347.8 337.21 1451.32 91.51 1610.21 85.43" stroke="rgba(59, 175, 164, 1)" stroke-width="2"></path><path d="M182.95 647.57C382.53 630.12 516.69 220.21 860.3 219.37 1203.91 218.53 1361.38 413.41 1537.65 415.37" stroke="rgba(59, 175, 164, 1)" stroke-width="2"></path></g><defs><mask id="SvgjsMask1002"><rect width="1440" height="560" fill="#ffffff"></rect></mask></defs></svg>