<svg xmlns="http://www.w3.org/2000/svg" version="1.1" xmlns:xlink="http://www.w3.org/1999/xlink" xmlns:svgjs="http://svgjs.dev/svgjs" width="1440" height="560" preserveAspectRatio="none" viewBox="0 0 1440 560"><g mask="url(&quot;#SvgjsMask1029&quot;)" fill="none"><rect width="1440" height="560" x="0" y="0" fill="rgba(246, 252, 250, 1)"></rect><path d="M822.46-92.5C707.94-60.12 774.71 244.66 503.33 260.71 231.95 276.76 29.71 421.84-134.94 423.11" stroke="rgba(59, 175, 164, 1)" stroke-width="2"></path><path d="M1145.62-71.41C959.34-52.42 842.36 346.09 524.82 347.61 207.28 349.13 63.75 197.49-95.98 196.41" stroke="rgba(59, 175, 164, 1)" stroke-width="2"></path><path d="M1039.99-49.06C869.01-47.77 725.03 113.41 376.9 118.57 28.77 123.73-108.4 371.7-286.19 376.17" stroke="rgba(59, 175, 164, 1)" stroke-width="2"></path><path d="M1259.33-109.58C1075.03-99.07 957.51 227.42 607.09 236.59 256.68 245.76 123.24 403.25-45.14 404.59" stroke="rgba(59, 175, 164, 1)" stroke-width="2"></path><path d="M1255.54-83.87C1128.2-76.19 1035.46 158.75 807.07 159.54 578.68 160.33 582.83 89.54 358.6 89.54 134.36 89.54 23.6 159.33-89.87 159.54" stroke="rgba(59, 175, 164, 1)" stroke-width="2"></path></g><defs><mask id="SvgjsMask1029"><rect width="1440" height="560" fill="#ffffff"></rect></mask></defs></svg>