<svg xmlns="http://www.w3.org/2000/svg" version="1.1" xmlns:xlink="http://www.w3.org/1999/xlink" xmlns:svgjs="http://svgjs.dev/svgjs" width="1440" height="560" preserveAspectRatio="none" viewBox="0 0 1440 560"><g mask="url(&quot;#SvgjsMask1417&quot;)" fill="none"><rect width="1440" height="560" x="0" y="0" fill="rgba(246, 252, 250, 1)"></rect><path d="M -33.401721940196836,412 C 14.6,380.8 110.6,263.2 206.59827805980316,256 C 302.6,248.8 350.6,423 446.5982780598032,376 C 542.6,329 590.6,39 686.5982780598032,21 C 782.6,3 830.6,286 926.5982780598032,286 C 1022.6,286 1070.6,-15 1166.598278059803,21 C 1262.6,57 1310.6,465.6 1406.598278059803,466 C 1502.6,466.4 1639.92,40.6 1646.598278059803,23 C 1653.28,5.4 1481.32,307 1440,378" stroke="rgba(59, 175, 164, 1)" stroke-width="2"></path><path d="M -234.23991155093137,103 C -186.24,181.6 -90.24,476.6 5.760088449068634,496 C 101.76,515.4 149.76,187.4 245.76008844906863,200 C 341.76,212.6 389.76,560.6 485.76008844906863,559 C 581.76,557.4 629.76,213.4 725.7600884490687,192 C 821.76,170.6 869.76,456.6 965.7600884490687,452 C 1061.76,447.4 1109.76,157.6 1205.7600884490687,169 C 1301.76,180.4 1398.91,537.4 1445.7600884490687,509 C 1492.61,480.6 1441.15,123.4 1440,27" stroke="rgba(59, 175, 164, 1)" stroke-width="2"></path><path d="M -239.25967850867613,32 C -191.26,113.8 -95.26,437.4 0.7403214913238543,441 C 96.74,444.6 144.74,32.4 240.74032149132387,50 C 336.74,67.6 384.74,533.4 480.74032149132387,529 C 576.74,524.6 624.74,27.4 720.7403214913238,28 C 816.74,28.6 864.74,488.4 960.7403214913238,532 C 1056.74,575.6 1104.74,275.2 1200.7403214913238,246 C 1296.74,216.8 1392.89,406 1440.7403214913238,386 C 1488.59,366 1440.15,194 1440,146" stroke="rgba(59, 175, 164, 1)" stroke-width="2"></path></g><defs><mask id="SvgjsMask1417"><rect width="1440" height="560" fill="#ffffff"></rect></mask></defs></svg>