<?xml version="1.0" standalone="no"?>
<!DOCTYPE svg PUBLIC "-//W3C//DTD SVG 20010904//EN"
 "http://www.w3.org/TR/2001/REC-SVG-20010904/DTD/svg10.dtd">
<svg version="1.0" xmlns="http://www.w3.org/2000/svg"
 width="428.000000pt" height="583.000000pt" viewBox="0 0 428.000000 583.000000"
 preserveAspectRatio="xMidYMid meet">

<g transform="translate(0.000000,583.000000) scale(0.100000,-0.100000)"
fill="#000000" stroke="none">
<path d="M1450 5746 c-10 -27 -40 -235 -40 -278 0 -32 -1 -33 -39 -33 -68 0
-81 -22 -81 -131 l0 -92 -27 -6 c-16 -3 -104 -19 -198 -36 -261 -48 -538 -101
-557 -106 -9 -3 -31 -31 -49 -62 -17 -31 -104 -170 -192 -309 -132 -207 -167
-255 -199 -273 -37 -21 -38 -23 -38 -77 0 -54 2 -58 45 -100 l45 -43 0 -1108
c0 -610 -3 -1399 -7 -1755 -6 -645 -6 -646 -27 -649 -20 -3 -21 -9 -20 -105 0
-57 2 -105 5 -107 2 -2 351 -7 775 -12 l772 -7 11 22 c7 12 9 26 6 31 -4 6
-290 10 -753 10 -410 0 -750 4 -755 9 -4 4 -7 30 -5 57 3 42 6 49 26 52 l22 3
0 696 0 696 537 -7 c296 -4 539 -9 542 -11 2 -2 6 -300 10 -662 l6 -658 138
-3 138 -3 -4 503 c-2 277 -2 542 0 590 l4 88 31 0 31 0 -4 -562 -4 -563 80 0
80 0 0 105 0 105 -62 3 c-47 2 -63 7 -63 17 0 12 14 15 60 15 l60 0 0 310 0
310 -29 0 c-42 0 -91 11 -91 21 0 4 28 9 63 11 l62 3 0 85 0 85 -57 3 c-50 3
-58 6 -58 22 0 19 9 20 269 20 l269 0 11 31 c6 18 11 36 11 40 0 5 -148 9
-330 9 l-330 0 0 33 c0 17 3 49 7 71 l6 39 366 -4 c342 -4 366 -3 369 14 3 16
-26 17 -508 17 l-511 0 3 128 3 127 407 3 406 2 11 32 c6 17 11 35 11 39 0 5
-106 9 -235 9 l-235 0 2 163 3 162 53 28 52 28 0 -69 c0 -94 9 -134 32 -140
10 -2 22 -18 26 -36 7 -26 14 -32 41 -34 19 -2 38 1 44 7 7 7 63 11 147 11
l136 0 27 55 c15 31 27 58 27 60 0 3 -93 5 -207 5 -115 0 -214 4 -221 9 -9 5
-12 27 -10 72 l3 64 237 3 237 2 3 -27 c4 -26 5 -25 27 21 15 31 19 52 13 58
-6 6 -8 168 -4 443 l5 433 -157 7 c-148 7 -221 4 -235 -10 -3 -4 -8 -201 -11
-438 -4 -332 -8 -431 -17 -435 -15 -4 -18 353 -6 706 l6 202 226 -2 226 -3 -2
-435 -3 -435 30 60 29 60 3 460 3 460 -292 3 -293 2 0 -540 c0 -525 -1 -540
-19 -540 -11 0 -49 -13 -85 -30 l-66 -29 0 631 0 631 278 -6 c152 -4 360 -7
461 -7 l184 0 -7 -424 -8 -423 23 -6 c13 -4 25 -4 27 -2 2 2 7 368 9 812 5
766 4 809 -12 823 -15 13 -89 15 -486 15 -518 0 -492 3 -503 -65 -3 -19 -8
-480 -12 -1023 l-7 -989 -36 -23 c-20 -12 -40 -20 -45 -18 -4 3 -5 42 -1 86 3
44 7 530 7 1081 0 550 3 1006 8 1011 4 6 11 31 14 57 10 68 61 109 183 148
155 50 256 63 433 57 332 -12 535 -93 515 -205 -5 -29 -3 -34 16 -39 l21 -6
-7 -882 c-7 -772 -6 -883 7 -888 21 -7 28 226 28 891 l0 522 40 0 40 0 0 83
c0 45 5 114 11 152 5 39 7 84 4 102 -8 46 -56 93 -94 93 -21 0 -31 5 -31 15 0
56 -70 112 -190 152 -59 19 -67 25 -86 65 -38 76 -150 118 -319 118 -176 0
-315 -55 -315 -124 0 -31 -3 -33 -93 -57 -39 -11 -91 -31 -114 -45 -44 -26
-83 -78 -83 -113 0 -17 -6 -21 -30 -21 -21 0 -39 -9 -55 -26 -29 -32 -50 -98
-39 -128 4 -12 10 -77 13 -146 l6 -125 37 -3 38 -3 -7 -932 c-6 -886 -7 -933
-25 -956 -13 -17 -18 -41 -18 -86 l0 -62 -56 -7 c-30 -3 -60 -4 -65 0 -7 4 -8
109 -4 313 4 168 10 765 14 1326 5 896 8 1020 21 1022 126 16 130 22 130 168
l0 115 646 -2 647 -3 -2 -106 c-2 -130 7 -146 87 -156 l52 -6 0 -1058 c0
-1036 0 -1059 19 -1069 11 -5 22 -10 25 -10 3 0 6 347 6 770 l0 770 28 -6 c15
-4 95 -24 177 -46 360 -94 591 -149 744 -177 90 -17 165 -31 166 -33 1 -2 4
-419 6 -928 l4 -925 -240 -3 c-211 -2 -241 -4 -252 -19 -32 -42 -26 -43 242
-43 l255 0 0 -155 0 -155 -327 6 -328 7 -23 -48 c-13 -26 -20 -50 -17 -53 3
-3 160 -8 349 -10 l343 -5 6 -510 c4 -281 7 -592 7 -693 0 -174 1 -183 20
-189 17 -5 20 -15 20 -67 l0 -61 -1015 8 -1015 7 9 -24 c8 -23 10 -23 222 -30
118 -3 582 -8 1031 -10 l817 -3 3 40 c2 22 2 73 0 114 -3 62 -7 74 -23 78 -18
5 -19 20 -19 442 0 471 -7 1670 -15 2537 l-5 540 40 39 c38 37 40 42 40 98 0
53 -4 64 -44 120 -66 94 -289 444 -331 520 -20 37 -38 67 -39 67 -12 0 -472
88 -633 122 l-203 41 0 98 c0 94 -1 98 -27 119 -21 17 -37 21 -65 17 l-38 -5
0 46 c0 26 -9 98 -21 160 -19 98 -24 113 -43 117 -11 2 -308 6 -659 8 -637 3
-639 3 -647 -17z m1002 -43 l285 -6 10 -61 c6 -34 9 -62 8 -64 -2 -2 -292 -6
-645 -9 l-643 -6 6 24 c3 13 9 48 13 77 l7 52 337 0 c185 0 465 -3 622 -7z
m433 -383 c0 -36 -4 -45 -19 -48 -22 -5 -36 14 -36 49 0 29 18 51 40 47 11 -2
15 -16 15 -48z m-1497 -6 c2 -31 -1 -43 -13 -48 -26 -10 -35 2 -35 43 0 42 7
53 30 49 10 -2 16 -17 18 -44z m924 -33 c61 -20 106 -47 95 -58 -3 -2 -45 4
-93 13 -115 23 -324 23 -414 1 -36 -8 -67 -13 -69 -11 -14 13 39 41 116 61
112 30 261 27 365 -6z m-1032 -249 c0 -71 -3 -170 -6 -219 l-7 -91 -101 -26
c-143 -37 -198 -49 -580 -127 -357 -72 -366 -74 -366 -61 0 5 60 103 134 218
73 115 143 228 155 252 12 23 24 42 28 42 14 0 505 92 608 114 61 13 116 24
123 25 9 1 12 -31 12 -127z m2015 49 c171 -33 339 -65 376 -71 78 -14 78 -13
107 -69 13 -23 82 -133 153 -244 71 -110 127 -202 125 -204 -12 -12 -672 124
-971 200 l-130 33 -3 213 c-2 199 -1 212 15 207 10 -3 158 -32 328 -65z
m-1210 -521 l0 -235 -72 -3 -73 -3 0 235 c0 266 -8 245 90 243 l55 -2 0 -235z
m205 0 l0 -240 -70 0 -70 0 0 240 0 240 70 0 70 0 0 -240z m181 230 l69 0 0
-245 0 -245 -90 0 -90 0 0 243 c0 134 3 247 7 251 4 3 13 4 21 1 7 -3 45 -5
83 -5z m-585 -112 c-3 -62 -9 -170 -12 -240 l-6 -128 -32 -5 c-17 -4 -56 -5
-86 -3 l-55 3 3 235 c2 167 7 237 15 242 7 4 50 8 96 8 l83 0 -6 -112z m-622
-1120 c-4 -574 -9 -1046 -13 -1049 -3 -4 -248 -9 -545 -12 l-538 -6 3 925 4
925 35 9 c19 5 116 27 215 50 99 22 319 76 490 119 171 44 320 80 333 80 l23
1 -7 -1042z m-1154 771 c0 -66 -24 -62 -28 4 -2 37 0 47 12 47 12 0 16 -12 16
-51z m4048 14 c3 -34 -12 -73 -28 -73 -6 0 -10 25 -10 56 0 47 3 55 18 52 11
-2 18 -14 20 -35z m-1783 -443 l0 -35 -170 -3 c-93 -2 -212 0 -262 3 l-93 7 0
34 0 34 263 -2 262 -3 0 -35z m-288 -156 c22 -6 22 -9 17 -103 -3 -53 -7 -120
-10 -148 l-5 -53 -49 0 c-27 0 -51 -4 -54 -9 -6 -9 40 -21 81 -21 l24 0 -3
-122 -3 -123 -48 -3 c-59 -4 -52 -22 9 -22 l44 0 0 -57 c0 -32 3 -89 7 -126
l6 -68 -74 3 c-41 2 -73 6 -71 11 1 4 2 196 2 427 l0 420 53 0 c28 0 62 -3 74
-6z m181 -64 c2 -30 1 -97 -3 -147 l-7 -93 -64 0 -64 0 0 150 0 151 68 -3 67
-3 3 -55z m-10 -392 l3 -118 -66 0 -65 0 0 113 c0 63 3 117 7 121 4 4 32 6 63
4 l55 -3 3 -117z m-27 -158 l29 0 0 -120 0 -120 -72 0 -71 0 7 116 c3 64 9
121 12 126 4 6 20 7 36 4 17 -3 43 -6 59 -6z m-631 -535 l0 -145 -60 0 -60 0
0 105 0 104 53 40 c28 23 55 41 60 41 4 0 7 -65 7 -145z m-642 -235 c2 -36 7
-69 13 -75 5 -5 9 -30 9 -56 0 -47 19 -77 39 -64 6 3 28 -6 48 -20 l38 -25
-331 0 c-182 0 -392 3 -467 7 l-137 6 0 149 0 148 393 -2 392 -3 3 -65z m512
-1020 l0 -590 -64 0 c-36 0 -67 4 -71 9 -3 6 -2 271 1 590 l7 581 64 0 63 0 0
-590z m260 -495 l0 -75 -40 0 -40 0 0 75 0 75 40 0 40 0 0 -75z"/>
<path d="M894 5035 c-48 -20 -64 -72 -64 -210 0 -62 3 -116 8 -118 4 -2 50 4
102 12 l95 16 3 90 c2 67 7 92 18 98 28 16 -5 76 -56 102 -43 21 -74 24 -106
10z m64 -177 c-3 -63 -3 -63 -35 -66 l-33 -3 0 59 c0 32 3 62 7 65 3 4 19 7
35 7 l29 0 -3 -62z"/>
<path d="M570 4840 c-11 -11 -20 -34 -21 -52 0 -18 -2 -43 -5 -55 -5 -31 8
-35 81 -28 l65 7 0 54 c0 64 -23 94 -70 94 -17 0 -39 -9 -50 -20z"/>
<path d="M3230 5014 c-50 -36 -74 -91 -46 -106 13 -7 16 -28 16 -97 l0 -89 88
-16 c133 -25 122 -33 122 92 0 173 -22 222 -106 229 -36 3 -55 0 -74 -13z m98
-100 c20 -6 22 -12 22 -71 0 -63 -1 -65 -22 -59 -13 3 -29 6 -35 6 -9 0 -13
18 -13 58 0 73 3 78 48 66z"/>
<path d="M3571 4824 c-21 -26 -30 -107 -13 -117 4 -3 34 -7 67 -8 l60 -4 0 63
c0 51 -4 67 -20 78 -31 23 -71 17 -94 -12z"/>
<path d="M980 4394 c-69 -8 -131 -16 -137 -19 -10 -3 -13 -64 -13 -259 0 -159
-4 -257 -10 -261 -5 -3 -10 -22 -10 -41 0 -40 -10 -38 163 -24 167 15 167 14
167 51 0 16 -6 32 -14 35 -12 5 -14 40 -9 217 2 117 9 221 15 233 14 29 6 79
-12 80 -8 1 -71 -5 -140 -12z m90 -319 c0 -148 -3 -197 -12 -199 -7 -3 -48 -7
-90 -10 l-78 -6 0 200 0 199 48 4 c26 2 66 4 90 5 l42 2 0 -195z"/>
<path d="M470 4290 c-74 -10 -137 -19 -140 -19 -3 -1 -6 -112 -8 -248 -2 -141
-7 -252 -12 -257 -6 -6 -10 -25 -10 -44 l0 -35 88 7 c104 8 243 26 254 32 4 3
8 19 8 36 0 22 -5 31 -21 35 -21 6 -21 7 -14 217 4 116 11 216 17 223 14 17 6
68 -12 70 -8 0 -76 -7 -150 -17z m90 -294 l0 -193 -52 -7 c-29 -3 -72 -6 -96
-6 l-42 0 2 188 3 187 85 11 c47 6 88 12 93 13 4 0 7 -86 7 -193z"/>
<path d="M943 3506 c-56 -6 -105 -14 -109 -18 -13 -14 -21 -774 -8 -788 11
-10 289 2 300 13 7 7 15 51 18 100 6 75 5 87 -8 87 -9 0 -16 8 -16 18 -1 9 0
118 0 242 0 186 3 227 15 236 10 8 15 30 15 68 l0 56 -52 -1 c-29 -1 -99 -7
-155 -13z m131 -373 c-4 -126 -7 -229 -8 -230 -1 -1 -46 -5 -99 -9 l-97 -7 2
229 3 229 70 6 c39 3 85 6 102 7 l33 2 -6 -227z"/>
<path d="M430 3436 l-125 -11 -3 -46 c-2 -32 2 -50 13 -59 13 -11 15 -48 15
-249 0 -138 -4 -241 -10 -247 -5 -5 -7 -40 -3 -82 l6 -72 156 2 156 3 7 75 c7
65 6 77 -10 90 -16 14 -17 34 -12 252 4 168 10 241 19 251 7 9 11 34 9 59 l-3
43 -45 1 c-25 1 -101 -3 -170 -10z m138 -368 l-3 -233 -98 -3 -98 -3 7 223 c3
123 8 225 11 228 2 2 38 7 81 11 42 3 83 7 90 7 10 2 12 -47 10 -230z"/>
<path d="M3104 4159 c-1 -190 -5 -263 -14 -269 -6 -4 -10 -22 -8 -41 l3 -34
125 -12 c69 -6 144 -12 168 -12 41 -1 42 0 42 32 0 19 -3 37 -7 41 -4 4 -6
121 -4 261 l3 254 -34 5 c-110 18 -238 36 -254 36 -18 0 -19 -13 -20 -261z
m161 120 l75 -11 0 -200 0 -200 -67 7 c-126 12 -113 -12 -113 216 0 168 2 199
15 199 8 0 48 -5 90 -11z"/>
<path d="M3607 4314 c-10 -11 -9 -52 3 -75 17 -30 1 -429 -17 -429 -8 0 -13
-12 -13 -35 0 -28 4 -35 23 -39 36 -7 239 -26 279 -26 l37 0 -5 138 c-2 75 -6
183 -9 239 -2 59 0 105 6 108 11 7 12 55 1 72 -4 6 -61 19 -126 28 -66 9 -131
18 -145 21 -14 3 -29 2 -34 -2z m191 -138 l54 -11 -1 -180 c-1 -98 -4 -181 -6
-183 -2 -2 -43 0 -92 5 l-88 8 -3 192 -2 191 42 -6 c24 -3 67 -10 96 -16z"/>
<path d="M3068 3534 c-3 -5 -6 -30 -7 -56 -1 -38 2 -49 19 -58 19 -10 20 -19
20 -219 0 -214 1 -221 38 -221 4 0 5 88 4 196 l-4 197 93 -8 c128 -10 123 -6
115 -84 -3 -36 -6 -137 -6 -223 0 -138 -2 -157 -17 -160 -10 -2 4 -13 35 -27
56 -26 74 -23 53 10 -9 16 -12 91 -10 315 1 170 -2 299 -7 304 -16 16 -318 48
-326 34z"/>
<path d="M3587 3463 c-4 -3 -7 -30 -7 -60 0 -38 4 -55 15 -59 13 -5 15 -42 15
-241 0 -207 -2 -237 -16 -248 -26 -19 -11 -92 29 -137 l32 -36 138 -6 138 -5
-3 87 c-2 69 -6 87 -18 87 -13 0 -15 32 -11 240 2 132 7 244 12 250 13 14 11
69 -3 87 -9 11 -54 20 -153 32 -158 18 -159 18 -168 9z m249 -166 c1 -1 5
-102 9 -224 l8 -223 -91 0 -91 0 -3 226 c-2 124 -1 228 2 231 5 5 161 -4 166
-10z"/>
<path d="M2533 3129 c-17 -11 -41 -39 -52 -62 -11 -23 -86 -179 -167 -347
-163 -338 -176 -379 -134 -433 12 -16 47 -42 76 -59 103 -58 109 -102 34 -249
-27 -54 -50 -104 -50 -113 0 -8 13 -25 28 -38 15 -13 31 -29 35 -35 7 -11 -67
-173 -373 -813 -67 -140 -150 -316 -185 -390 -34 -75 -95 -200 -134 -278 -39
-78 -71 -148 -71 -156 0 -22 51 -156 60 -156 4 0 22 33 40 72 18 40 96 206
173 368 283 599 321 678 387 820 37 80 91 197 120 260 117 258 132 277 173
232 19 -21 26 -4 -208 -497 -76 -159 -177 -373 -225 -475 -48 -102 -149 -313
-224 -470 -74 -157 -132 -286 -127 -288 11 -4 233 95 249 111 11 11 10 22 -7
66 -27 68 -27 77 9 98 22 12 30 25 30 45 0 21 9 34 41 55 34 23 40 31 35 52
-3 14 -9 49 -12 78 l-7 52 58 36 57 37 -5 42 c-3 23 -3 46 1 52 4 6 37 25 74
43 81 38 89 57 62 136 -22 66 -17 73 78 121 80 40 80 41 43 164 -42 141 -40
144 128 208 l115 44 41 84 c22 46 45 84 51 84 6 0 32 -5 57 -12 43 -10 47 -10
65 12 12 15 18 39 18 74 0 65 34 136 74 155 26 12 37 11 101 -9 81 -25 123
-19 163 23 12 13 94 179 182 369 177 383 183 403 133 458 -39 42 -893 450
-943 450 -19 0 -49 -10 -67 -21z m502 -291 c121 -61 135 -72 135 -113 0 -33
-52 -141 -78 -162 -28 -23 -71 -14 -172 37 -119 59 -140 78 -140 123 1 42 58
148 90 164 31 15 40 13 165 -49z"/>
<path d="M2907 2814 c-4 -4 -7 -35 -7 -69 0 -60 11 -85 37 -85 21 0 14 154 -7
158 -9 1 -19 0 -23 -4z"/>
<path d="M288 1316 c-1 -278 -3 -539 -3 -578 l0 -73 135 -6 c183 -9 697 -15
702 -9 3 3 2 261 -1 575 l-6 570 -150 6 c-82 4 -268 10 -412 14 l-263 7 -2
-506z m187 384 l0 -65 -50 0 -50 0 -3 54 c-4 77 0 83 55 79 l48 -3 0 -65z
m293 -472 c-3 -508 -4 -543 -20 -546 -17 -3 -18 12 -18 205 0 114 3 360 7 546
5 273 9 337 20 337 11 0 13 -93 11 -542z m276 536 l46 -7 0 -58 0 -59 -145 0
-145 0 0 65 0 65 99 0 c54 0 119 -3 145 -6z m-394 -69 l0 -65 -60 0 -60 0 0
65 0 65 60 0 60 0 0 -65z m-170 -385 l0 -270 -55 0 -55 0 0 270 0 270 55 0 55
0 0 -270z m170 0 l0 -270 -65 0 -65 0 4 218 c2 119 5 241 5 270 l1 52 60 0 60
0 0 -270z m290 210 l0 -60 -40 0 -40 0 0 60 0 60 40 0 40 0 0 -60z m100 0 l0
-60 -30 0 c-30 0 -30 1 -30 53 0 60 4 67 37 67 22 0 23 -4 23 -60z m-90 -315
l0 -205 -45 0 -45 0 0 205 0 205 45 0 45 0 0 -205z m90 0 l0 -205 -30 0 -30 0
0 205 0 205 30 0 30 0 0 -205z m-365 -330 l0 -110 -155 0 -155 0 -3 113 -3
113 158 -3 158 -3 0 -110z m373 -72 l3 -83 -101 0 -100 0 0 85 0 86 98 -3 97
-3 3 -82z"/>
<path d="M1814 1806 c-3 -7 -4 -46 -2 -87 l3 -74 182 -3 183 -2 32 65 c32 65
32 65 13 84 -18 16 -43 19 -213 24 -153 5 -194 3 -198 -7z"/>
<path d="M3215 1789 c-29 -14 -52 -17 -82 -13 l-43 6 0 -548 c0 -302 -3 -559
-6 -571 l-6 -23 441 0 441 0 0 579 0 579 -31 6 c-17 3 -176 6 -353 5 -294 -1
-324 -2 -361 -20z m339 -366 c3 -197 9 -445 12 -550 6 -173 5 -193 -10 -199
-9 -3 -26 -4 -39 -1 l-22 6 3 538 c2 296 5 544 7 551 2 6 13 12 23 12 18 0 20
-15 26 -357z m-284 287 l0 -50 -50 0 -50 0 0 43 c0 24 3 47 7 50 3 4 26 7 50
7 l43 0 0 -50z m145 -5 c0 -47 -1 -50 -25 -49 -14 1 -37 2 -52 3 -27 1 -28 3
-28 52 l0 50 53 -3 52 -3 0 -50z m426 45 l39 0 0 -63 c0 -35 -2 -66 -4 -68 -2
-2 -27 -2 -55 -1 l-51 4 0 70 c0 60 2 69 16 64 9 -3 33 -6 55 -6z m-121 -65
l0 -65 -50 0 -50 0 0 65 0 65 50 0 50 0 0 -65z m-450 -385 l0 -270 -55 0 -55
0 0 248 c0 136 3 257 6 270 6 19 13 22 55 22 l49 0 0 -270z m143 261 c8 -1 10
-502 1 -525 -4 -12 -20 -16 -55 -16 l-49 0 0 268 c0 148 3 272 7 276 4 3 25 4
47 2 23 -3 44 -5 49 -5z m294 1 c8 -5 14 -87 19 -265 l7 -257 -57 0 -56 0 0
258 c0 142 3 262 7 265 9 9 65 9 80 -1z m161 -1 c9 -1 12 -60 12 -261 l0 -260
-55 0 -55 0 0 259 c0 285 -4 269 60 264 14 -1 31 -2 38 -2z m30 -698 l3 -123
-141 0 -140 0 0 125 0 126 138 -3 137 -3 3 -122z m-463 -8 l0 -110 -140 0
-140 0 -3 113 -3 113 143 -3 143 -3 0 -110z"/>
<path d="M2940 1689 c0 -46 -21 -98 -46 -112 -12 -7 -14 -73 -14 -418 l0 -410
-67 3 -68 3 -3 375 -2 375 -30 -52 -30 -52 0 -356 0 -355 146 0 146 0 -6 248
c-3 136 -9 369 -12 517 -3 149 -8 272 -10 274 -2 2 -4 -16 -4 -40z"/>
<path d="M1796 1554 c-3 -26 -6 -203 -6 -393 1 -313 2 -343 16 -318 12 22 16
94 21 377 l6 350 128 0 128 0 3 -57 3 -58 31 65 30 65 -40 7 c-23 3 -102 7
-177 7 l-136 1 -7 -46z"/>
<path d="M1866 1528 c-3 -7 -7 -122 -10 -256 -6 -216 -5 -243 10 -249 33 -12
36 12 35 242 l-2 226 63 -3 63 -3 5 -80 c6 -101 20 -74 20 40 l0 83 -31 6
c-56 11 -149 7 -153 -6z"/>
<path d="M2577 1373 c-11 -10 -8 -681 2 -688 5 -3 12 -2 14 2 3 5 8 162 12
351 6 294 5 342 -7 342 -8 0 -18 -3 -21 -7z"/>
<path d="M2465 1327 l-26 -22 31 -108 c30 -100 31 -109 16 -132 -8 -13 -29
-32 -46 -41 -16 -10 -30 -22 -30 -26 0 -4 27 -8 60 -8 l60 0 0 180 c0 172 -1
180 -19 180 -11 0 -32 -10 -46 -23z"/>
<path d="M2340 963 c0 -10 5 -25 10 -33 7 -11 10 -7 10 18 0 17 -4 32 -10 32
-5 0 -10 -8 -10 -17z"/>
<path d="M2423 954 c-9 -4 -13 -35 -13 -105 l0 -100 68 3 67 3 0 100 0 100
-55 2 c-30 1 -61 -1 -67 -3z m92 -104 l0 -65 -37 -3 -38 -3 0 71 0 71 38 -3
37 -3 0 -65z"/>
<path d="M2343 799 c-15 -15 -17 -87 -3 -109 14 -22 22 7 18 69 -2 42 -5 50
-15 40z"/>
</g>
</svg>
