<?xml version="1.0" standalone="no"?>
<!DOCTYPE svg PUBLIC "-//W3C//DTD SVG 20010904//EN"
 "http://www.w3.org/TR/2001/REC-SVG-20010904/DTD/svg10.dtd">
<svg version="1.0" xmlns="http://www.w3.org/2000/svg"
 width="422.000000pt" height="591.000000pt" viewBox="0 0 422.000000 591.000000"
 preserveAspectRatio="xMidYMid meet">

<g transform="translate(0.000000,591.000000) scale(0.100000,-0.100000)"
fill="#000000" stroke="none">
<path d="M1415 5850 c-10 -16 -35 -199 -35 -257 l0 -63 -43 0 c-66 0 -77 -18
-77 -127 l0 -91 -27 -6 c-16 -3 -136 -26 -268 -51 -132 -25 -292 -56 -355 -68
l-115 -22 -28 -45 c-265 -423 -355 -557 -389 -579 -37 -24 -38 -26 -38 -87 0
-60 1 -63 42 -100 l43 -38 0 -121 c0 -66 -1 -854 -2 -1752 l-3 -1632 -22 -3
c-22 -3 -23 -7 -23 -113 l0 -110 186 -3 185 -2 22 -93 22 -92 -20 -70 c-34
-118 -23 -201 32 -239 33 -24 71 -20 99 10 22 24 24 33 23 122 -1 54 1 88 3
77 12 -63 13 -65 39 -65 18 0 28 7 31 21 5 19 7 19 37 -10 41 -40 95 -61 153
-61 49 0 93 20 93 43 0 6 -38 47 -85 92 -97 93 -113 125 -107 209 l4 59 172
-6 c94 -4 210 -7 259 -7 l87 0 0 -97 c0 -70 4 -101 14 -112 13 -14 11 -28 -11
-108 -24 -88 -25 -94 -9 -118 44 -66 119 -80 192 -34 36 22 36 23 30 73 -21
176 -22 162 13 180 30 16 31 19 31 79 0 34 3 79 6 99 l7 38 54 0 54 0 -7 -35
c-3 -19 0 -81 6 -139 l13 -105 49 -10 c35 -8 53 -8 66 0 14 9 37 5 100 -15 95
-30 144 -32 196 -11 64 27 45 66 -62 124 -97 53 -112 72 -112 145 l0 46 246 0
247 0 -6 -56 c-7 -69 -21 -85 -115 -131 -40 -20 -77 -45 -83 -54 -17 -33 -10
-58 21 -74 42 -21 105 -19 201 9 57 17 88 21 96 14 14 -11 100 -1 109 14 3 5
6 29 6 53 0 26 6 49 14 56 10 8 14 34 14 90 l0 79 49 0 48 0 5 -92 c5 -78 9
-95 27 -109 12 -10 27 -19 33 -21 10 -4 10 -25 1 -99 -11 -81 -10 -97 3 -117
22 -34 98 -65 139 -58 36 7 95 55 95 78 0 7 -11 52 -24 100 -21 75 -22 89 -10
105 9 12 13 48 14 116 l0 97 103 0 c57 0 165 -3 239 -6 l136 -7 5 -66 c4 -54
2 -72 -14 -97 -19 -32 -92 -102 -144 -140 -25 -18 -28 -25 -19 -40 6 -11 28
-25 50 -32 52 -17 121 -1 180 44 31 24 44 29 44 19 0 -21 47 -19 59 2 5 10 12
55 16 101 4 45 10 82 14 82 4 0 15 -6 25 -13 14 -10 15 -18 7 -39 -6 -15 -17
-66 -26 -113 -19 -98 -11 -141 32 -175 46 -36 108 -18 139 41 19 38 18 64 -7
170 -20 84 -21 91 -5 102 11 8 21 38 28 84 l11 72 51 3 51 3 3 107 c2 99 1
108 -18 118 -19 10 -20 20 -20 203 0 124 4 197 11 204 6 6 13 81 16 183 l6
172 39 46 c37 45 38 49 38 122 0 52 5 82 15 98 20 27 45 269 45 431 0 113 -51
566 -69 614 -10 26 -61 72 -89 81 -17 6 -19 25 -25 254 -4 136 -7 445 -7 687
l0 440 40 36 c38 35 40 39 40 97 0 34 -5 64 -11 68 -13 8 -199 291 -309 469
-40 66 -78 126 -85 132 -6 7 -166 44 -355 83 -190 38 -367 76 -395 82 l-50 13
-5 98 c-5 90 -7 101 -30 119 -17 14 -34 18 -56 15 l-32 -5 -7 61 c-9 84 -35
230 -43 244 -8 12 -1269 25 -1277 13z m1210 -59 c26 -6 31 -13 41 -64 6 -31 9
-59 6 -62 -3 -3 -284 -5 -624 -5 -585 0 -619 1 -615 18 3 9 8 40 12 67 4 28 8
52 10 55 5 8 1137 -1 1170 -9z m55 -323 c0 -62 4 -118 8 -125 11 -17 58 -33
95 -33 l32 0 -3 -820 c-1 -451 -5 -820 -9 -820 -4 0 -17 9 -28 20 -12 12 -44
29 -71 39 l-49 19 0 146 c0 80 1 294 3 475 l2 330 38 3 37 3 6 135 c3 74 9
142 13 151 17 39 -51 129 -98 129 -16 0 -25 10 -36 42 -12 35 -25 49 -69 75
-30 18 -82 42 -117 53 -53 18 -64 25 -69 49 -9 41 -44 70 -122 98 -85 31 -216
41 -304 24 -92 -18 -177 -64 -185 -99 -3 -15 -7 -31 -9 -37 -1 -5 -44 -23 -94
-38 -107 -34 -168 -81 -180 -137 -5 -27 -12 -36 -31 -38 -56 -8 -95 -72 -86
-141 4 -25 9 -99 12 -163 l6 -118 34 0 34 0 0 -782 c0 -431 -4 -788 -8 -794
-7 -12 -153 -88 -156 -82 -1 2 1 280 5 618 4 338 7 848 8 1133 l1 517 38 0
c20 0 52 9 70 20 35 22 34 16 32 168 l-1 92 625 0 626 0 0 -112z m118 -45 c-3
-55 -30 -72 -48 -31 -15 33 3 78 30 78 19 0 21 -5 18 -47z m-1450 25 c17 -17
15 -63 -3 -78 -22 -18 -35 -3 -35 39 0 50 13 64 38 39z m894 -67 c66 -21 112
-51 89 -59 -6 -2 -35 2 -63 8 -121 27 -355 24 -465 -6 -17 -5 -23 -2 -23 9 0
15 70 43 165 66 63 16 221 6 297 -18z m106 -110 c161 -36 258 -104 249 -174
-3 -19 2 -32 15 -41 18 -13 19 -35 12 -664 l-7 -651 -23 -5 c-12 -3 -29 -9
-38 -12 -15 -6 -16 50 -16 607 0 338 -4 620 -8 627 -14 21 -309 35 -612 28
-281 -6 -330 -10 -341 -27 -6 -10 -19 -754 -19 -1093 0 -173 -1 -183 -25 -230
-27 -53 -31 -89 -14 -132 7 -21 7 -34 -2 -50 -15 -29 -4 -84 23 -114 22 -24
35 -99 25 -142 -5 -20 -60 -58 -82 -58 -3 0 -5 428 -5 950 0 627 3 950 10 950
6 0 10 17 10 38 0 46 29 96 72 122 41 26 170 66 268 85 110 21 386 13 508 -14z
m-1107 -227 c-1 -115 -4 -211 -6 -212 -13 -14 -297 -76 -988 -218 -15 -3 -27
-1 -27 4 0 5 37 67 82 138 66 104 175 283 215 352 5 8 110 32 268 62 143 27
301 58 350 69 50 10 95 18 100 17 6 -2 9 -78 6 -212z m1845 162 c115 -24 272
-56 349 -70 77 -15 152 -29 166 -32 15 -3 31 -16 38 -30 6 -14 75 -124 152
-245 78 -121 140 -222 137 -224 -7 -7 -641 124 -853 177 l-210 53 -3 208 c-1
114 1 207 6 207 5 0 103 -20 218 -44z m-868 -538 l2 -238 -70 0 -70 0 0 240 0
241 68 -3 67 -3 3 -237z m-388 147 c-1 -44 -5 -152 -9 -240 l-6 -160 -85 0
-85 0 0 43 c1 23 2 129 3 236 l2 195 28 4 c15 2 56 4 91 3 l64 -1 -3 -80z
m196 33 c-3 -29 -6 -135 -6 -235 l0 -183 -70 0 -70 0 0 235 0 235 76 0 77 0
-7 -52z m437 42 c2 -3 2 -112 -1 -242 l-5 -238 -83 0 -84 0 0 246 0 246 84 -3
c46 -2 86 -6 89 -9z m-1228 -1049 l-6 -866 -31 -172 -32 -172 -83 -6 c-45 -4
-89 -5 -98 -1 -11 4 -15 20 -15 59 0 30 -3 75 -6 101 l-7 46 45 0 c25 0 59 3
75 6 l30 6 7 91 c5 79 4 94 -10 104 -16 11 -17 35 -10 245 4 128 11 237 16
242 6 6 10 35 10 65 l0 54 -117 -7 c-180 -10 -193 -13 -193 -47 0 -35 -3 -35
-46 -8 -52 32 -133 36 -187 10 -30 -14 -72 -23 -128 -27 -154 -10 -149 -7
-149 -65 0 -35 4 -51 15 -55 13 -5 15 -33 14 -173 0 -91 -4 -205 -8 -253 -7
-77 -11 -90 -38 -122 -35 -39 -39 -53 -56 -192 -11 -87 -15 -99 -32 -99 -15 0
-20 7 -19 28 0 15 1 432 2 927 l2 900 23 5 c77 17 637 154 812 199 115 30 214
52 218 49 5 -3 6 -395 2 -872z m1835 828 c264 -72 516 -133 697 -170 87 -17
161 -34 165 -38 4 -3 8 -266 10 -583 2 -317 1 -575 -1 -573 -1 2 -9 39 -17 81
-17 102 -48 146 -134 192 -59 31 -70 33 -115 26 -27 -4 -85 -6 -127 -6 l-78 2
0 -60 c0 -32 3 -61 8 -63 9 -6 7 -264 -3 -339 -7 -49 -5 -60 14 -86 21 -30 21
-30 1 -55 -11 -14 -20 -34 -20 -44 0 -11 -14 -32 -30 -48 -36 -35 -47 -70 -56
-192 l-7 -93 -82 0 -82 0 -24 113 -24 112 70 5 70 5 2 80 c1 44 -3 85 -9 92
-7 9 -9 106 -5 303 l6 291 -22 9 c-17 7 -268 40 -299 40 -5 0 -8 -26 -8 -59 0
-46 4 -62 19 -72 17 -13 18 -28 13 -231 -2 -120 -9 -218 -14 -218 -4 0 -35 14
-68 30 l-60 30 0 785 c0 623 3 785 13 785 6 0 95 -23 197 -51z m-2950 -224 c0
-56 -6 -65 -28 -43 -24 24 -9 98 20 98 4 0 8 -25 8 -55z m3899 41 c19 -22 -5
-96 -30 -96 -10 0 -12 93 -2 103 10 11 19 8 32 -7z m-1819 -292 l295 -6 -4
-266 c-3 -220 -6 -270 -19 -290 -9 -15 -15 -44 -14 -75 3 -154 8 -207 20 -218
13 -14 17 -226 4 -244 -21 -31 -74 -56 -109 -53 l-38 3 4 511 c2 288 0 513 -5
516 -5 3 -133 7 -284 9 l-275 4 -3 -172 -2 -173 -58 1 c-31 1 -69 -3 -84 -10
l-28 -11 0 239 c0 131 3 240 6 244 4 3 72 4 153 1 80 -2 279 -7 441 -10z m110
-184 l0 -40 -178 0 c-99 0 -213 3 -255 6 l-77 7 0 33 0 34 255 0 255 0 0 -40z
m-31 -105 c2 -2 0 -205 -4 -450 -7 -392 -9 -446 -23 -443 -13 3 -15 54 -13
434 l2 431 -113 6 c-192 11 -255 9 -262 -9 -3 -9 -6 -54 -6 -101 0 -63 -3 -84
-12 -81 -9 3 -14 38 -16 118 l-3 113 223 -8 c123 -4 225 -9 227 -10z m-237
-120 c-1 -38 -5 -107 -8 -153 l-6 -83 -56 3 c-69 4 -70 4 -71 181 l-1 129 73
-4 72 -3 -3 -70z m162 48 c-1 -7 -2 -74 -2 -148 l-2 -135 -65 0 -65 0 0 53 c0
28 -3 96 -7 150 l-6 98 74 -3 c52 -2 74 -7 73 -15z m-438 -132 c29 -13 45 -28
52 -49 10 -29 9 -31 -26 -45 -31 -12 -44 -12 -97 0 -68 15 -122 5 -112 -21 6
-15 -19 -56 -34 -56 -14 0 -11 56 5 94 14 35 66 80 101 89 40 10 71 6 111 -12z
m969 -14 c46 -26 85 -79 85 -116 -1 -26 -1 -25 -37 13 l-36 39 -64 -17 c-65
-17 -139 -13 -127 6 4 6 -6 2 -22 -8 l-28 -19 7 25 6 25 -19 -25 c-27 -35 -25
-14 2 26 50 73 154 96 233 51z m-866 -73 c17 -37 8 -39 -13 -4 -9 17 -13 30
-8 30 5 0 14 -12 21 -26z m881 -41 c0 -32 25 -141 34 -150 3 -3 12 0 21 7 12
10 16 9 21 -3 10 -26 0 -51 -25 -63 -13 -7 -30 -27 -38 -46 -20 -48 -81 -107
-119 -114 -42 -8 -68 8 -98 59 -27 47 -46 175 -38 265 4 50 6 53 26 46 34 -13
128 -7 166 10 47 21 50 20 50 -11z m-902 -8 c7 -14 12 -41 12 -60 0 -34 -1
-35 -43 -35 -24 0 -48 -5 -55 -12 -8 -8 -15 -8 -26 1 -10 8 -37 12 -76 9 -67
-3 -67 -4 -49 67 l11 43 76 -5 c43 -3 88 0 102 5 35 15 35 15 48 -13z m-1057
-43 c36 -38 64 -106 57 -140 -2 -9 -16 9 -33 43 -17 32 -40 64 -52 72 -20 14
-24 11 -63 -42 -58 -79 -154 -144 -178 -120 -7 7 160 166 167 160 9 -9 -64
-86 -109 -115 -51 -32 -63 -53 -18 -30 44 24 90 62 119 103 51 71 32 78 -43
15 -128 -107 -145 -126 -162 -186 -10 -31 -24 -77 -31 -102 -21 -67 -10 -60
16 10 16 45 25 58 31 46 4 -8 22 -29 39 -46 28 -28 31 -35 25 -72 -4 -22 -13
-52 -21 -67 -15 -25 -15 -24 -10 24 l5 50 -15 -55 c-14 -49 -28 -69 -47 -70
-4 0 0 19 8 42 8 24 17 70 19 103 l4 60 -13 -65 c-20 -101 -38 -150 -58 -161
-26 -14 -35 -5 -43 39 -5 29 1 51 24 104 29 62 46 139 57 253 6 61 45 144 80
169 31 22 114 34 169 25 28 -5 50 -19 76 -47z m2971 37 c68 -26 104 -61 122
-118 22 -70 50 -274 42 -305 -9 -38 -46 -69 -86 -72 l-32 -3 7 56 c4 31 9 62
12 70 8 21 31 15 36 -9 3 -16 5 -12 6 12 1 19 6 42 12 50 14 20 3 -103 -12
-131 -6 -12 -8 -23 -5 -26 13 -13 29 58 33 142 l5 90 -33 30 c-18 17 -27 22
-20 12 12 -15 12 -17 -1 -12 -25 10 -79 92 -85 130 -3 19 -10 35 -15 35 -6 0
-31 -17 -57 -39 -81 -67 -155 -106 -115 -59 11 13 0 8 -25 -12 l-43 -34 7 45
c8 49 36 109 59 128 20 17 85 40 113 41 12 0 46 -9 75 -21z m-956 -34 c3 -14
3 -33 -1 -42 -7 -17 -8 -16 -15 2 -12 28 -12 65 0 65 5 0 12 -11 16 -25z
m-1234 -30 c-2 -14 -8 -25 -13 -25 -10 0 -11 12 -3 34 10 25 22 19 16 -9z
m458 -95 l0 -120 -49 0 c-28 0 -53 -4 -56 -10 -3 -6 4 -10 18 -10 14 0 39 -3
56 -6 l31 -6 0 -120 c0 -136 3 -133 -86 -79 l-44 26 0 142 c0 89 4 152 12 168
9 21 9 31 0 46 -13 21 -15 49 -6 73 5 12 21 16 65 16 l59 0 0 -120z m168 3
l-3 -118 -62 -3 -63 -3 0 121 0 120 65 0 66 0 -3 -117z m1000 81 l42 -6 0
-220 0 -221 -83 5 c-45 2 -88 8 -95 12 -9 5 -12 66 -12 228 l0 221 53 -7 c28
-4 71 -9 95 -12z m-2148 -223 c0 -121 -3 -222 -8 -225 -4 -2 -34 -6 -66 -7
-58 -3 -59 -2 -62 25 -1 15 -13 46 -25 69 -19 37 -21 59 -23 194 l-1 152 25 4
c14 2 55 5 93 6 l67 1 0 -219z m-239 107 c32 -119 -31 -288 -108 -288 -39 0
-91 34 -111 72 -9 17 -34 50 -54 72 -39 41 -52 83 -22 72 36 -14 154 72 211
154 l16 23 28 -31 c15 -17 33 -51 40 -74z m2939 61 c7 -17 28 -49 47 -71 18
-22 33 -44 33 -50 0 -6 9 -8 20 -5 11 3 22 1 25 -3 10 -15 -15 -62 -36 -67
-11 -3 -31 -26 -44 -53 -47 -93 -146 -120 -192 -51 -28 41 -42 88 -50 163 l-6
56 49 25 c27 14 67 39 89 56 22 17 43 31 46 31 4 0 12 -14 19 -31z m-2049 11
c24 -14 24 -32 -1 -55 -17 -15 -24 -16 -45 -7 -32 15 -33 49 -2 62 29 11 26
11 48 0z m154 -10 c10 -17 -5 -49 -27 -56 -25 -8 -64 27 -55 50 7 18 72 23 82
6z m-241 -32 c4 -19 15 -32 32 -38 34 -13 60 -5 81 26 l16 25 18 -31 c15 -24
25 -30 54 -30 33 0 35 -1 29 -27 -11 -48 -54 -114 -81 -124 -55 -21 -144 51
-159 129 -5 25 -12 32 -29 32 -17 0 -26 9 -34 31 -6 18 -11 33 -11 34 0 1 18
2 39 2 35 0 40 -3 45 -29z m-1180 -42 c-14 -117 -23 -165 -41 -202 l-18 -39
-3 140 c-1 76 -1 144 2 150 2 7 17 10 35 7 l31 -4 -6 -52z m3102 -131 c9 -38
27 -90 40 -114 13 -24 24 -47 24 -52 0 -16 -40 -10 -47 7 -5 13 -7 13 -14 2
-7 -11 -11 -10 -24 2 -12 13 -14 36 -8 145 4 72 9 119 10 105 2 -14 10 -56 19
-95z m-726 25 c0 -56 -10 -75 -25 -50 -9 15 5 110 16 110 5 0 9 -27 9 -60z
m-612 -117 l-3 -118 -67 0 c-38 0 -68 3 -68 8 0 4 0 57 0 117 l0 110 70 0 71
0 -3 -117z m-348 41 c0 -56 -11 -69 -30 -34 -8 15 -7 31 1 60 16 53 29 41 29
-26z m-209 30 c28 -31 77 -54 114 -54 29 0 35 -29 10 -50 -13 -11 -21 -10 -42
1 -41 22 -110 87 -116 109 -7 27 5 25 34 -6z m1119 6 c0 -20 -123 -130 -145
-130 -13 0 -35 42 -35 68 0 14 10 17 49 17 41 0 56 6 88 32 46 38 43 38 43 13z
m-204 -25 c3 -14 3 -33 0 -42 -6 -15 -8 -15 -16 -3 -13 20 -13 70 0 70 5 0 12
-11 16 -25z m-1669 -117 c8 -26 -3 -60 -27 -86 l-21 -22 -39 20 c-34 18 -40
25 -40 53 0 17 7 41 16 52 13 17 16 18 24 5 8 -12 10 -11 10 8 0 12 5 22 11
22 5 0 7 5 4 10 -4 6 -3 24 0 41 7 31 7 31 32 -27 13 -33 27 -67 30 -76z m833
-10 c0 -17 -34 -68 -45 -68 -15 1 -70 79 -83 118 -21 62 -5 65 64 11 35 -28
64 -55 64 -61z m1048 60 c-10 -47 -57 -128 -74 -128 -11 0 -55 54 -53 67 1 12
123 111 130 107 4 -2 3 -23 -3 -46z m59 20 c6 -7 15 -35 22 -62 12 -47 11 -50
-15 -77 -25 -26 -26 -30 -12 -50 14 -21 8 -33 -101 -210 -63 -104 -117 -187
-118 -185 -2 2 14 45 36 97 39 94 161 462 161 486 0 17 15 17 27 1z m-1199
-205 c39 -115 84 -244 101 -287 39 -103 22 -85 -92 95 -113 178 -115 184 -92
209 18 20 18 21 -14 48 -30 25 -31 29 -21 59 7 18 10 38 8 45 -4 12 18 37 33
38 3 0 37 -93 77 -207z m-138 111 c-11 -32 -10 -38 11 -60 21 -22 21 -25 6
-42 -16 -17 -15 -22 16 -73 136 -223 280 -425 297 -414 16 10 59 160 80 277
26 146 26 233 0 273 -11 17 -20 34 -20 38 0 12 89 -40 121 -70 33 -30 35 -51
49 -407 6 -142 17 -337 26 -433 8 -95 12 -178 9 -183 -11 -17 -45 -11 -45 8 0
9 -9 94 -20 187 -22 189 -25 313 -10 454 6 52 7 103 4 114 -13 43 -26 -8 -42
-163 -17 -178 -13 -264 29 -558 23 -159 21 -167 -36 -178 -74 -14 -90 12 -139
229 -7 28 -26 38 -26 12 0 -37 -62 -205 -86 -230 -23 -25 -30 -27 -77 -22 -31
4 -87 24 -140 51 -67 33 -87 40 -85 27 5 -26 164 -101 230 -108 57 -6 59 -5
92 30 20 21 41 59 52 96 10 34 21 61 25 61 3 0 15 -32 28 -71 30 -92 49 -112
107 -107 35 2 44 0 44 -12 0 -9 -9 -110 -20 -225 -35 -380 -62 -807 -58 -952
l3 -141 -54 -11 c-30 -6 -76 -11 -103 -11 l-48 0 0 53 c0 40 3 48 11 37 9 -12
10 -11 5 4 -10 28 -29 638 -23 721 3 39 14 117 25 175 11 58 23 131 27 163 6
53 10 60 46 84 50 33 44 41 -10 14 -22 -12 -47 -21 -55 -21 -17 0 -29 -52 -91
-390 -56 -310 -83 -511 -95 -719 -6 -91 -12 -166 -14 -168 -2 -3 -27 -10 -55
-18 -52 -14 -85 -10 -131 15 l-23 12 7 282 c4 154 11 333 16 396 5 63 12 266
16 450 l7 335 29 46 c22 36 28 58 28 103 0 31 -3 56 -8 56 -4 0 -35 -23 -69
-50 l-62 -50 -15 22 c-17 27 -84 195 -116 292 -15 47 -21 81 -17 110 16 118
119 592 131 604 8 8 61 38 118 67 111 56 120 55 98 -11z m1472 27 c140 -67
146 -74 178 -231 16 -74 42 -199 59 -278 17 -78 31 -162 31 -186 0 -26 -22
-107 -56 -207 -31 -90 -58 -174 -61 -187 -3 -12 -9 -24 -13 -27 -4 -2 -39 23
-79 56 l-71 60 -1 -43 c-2 -69 0 -79 30 -148 l29 -65 6 -335 c4 -184 11 -402
16 -485 5 -82 10 -254 10 -382 0 -271 6 -258 -111 -251 -99 5 -109 17 -109
133 0 233 -53 631 -132 985 -31 139 -47 193 -66 218 -27 36 -49 44 -32 11 15
-28 5 -36 -18 -16 -10 10 -24 17 -32 17 -7 0 7 -18 32 -40 41 -36 46 -44 52
-98 4 -32 18 -111 31 -175 24 -118 24 -118 15 -475 -5 -196 -10 -390 -10 -431
l0 -74 -58 7 c-32 4 -80 12 -107 19 -49 12 -50 13 -47 47 2 19 6 44 9 55 6 18
7 18 14 -5 9 -33 9 246 -1 330 l-7 65 -3 -55 c-2 -33 -6 2 -11 85 -4 77 -20
259 -35 405 -15 146 -29 300 -31 342 l-5 77 35 -6 c19 -3 44 0 56 6 24 13 52
65 72 129 l12 42 41 -82 c37 -75 45 -84 80 -96 32 -10 49 -10 97 3 71 18 182
72 174 85 -6 10 -14 8 -114 -35 -78 -33 -142 -36 -172 -9 -25 22 -59 95 -83
177 -9 31 -20 57 -25 57 -5 0 -16 -39 -26 -87 -19 -99 -45 -150 -80 -159 -30
-8 -95 13 -95 31 0 7 11 120 25 251 14 131 25 281 25 334 0 115 -17 281 -29
293 -14 14 -24 -55 -17 -116 12 -98 8 -282 -8 -452 -21 -205 -23 -215 -40
-215 -31 0 -33 25 -15 210 9 102 24 320 33 484 12 231 19 305 31 323 15 22
175 136 182 129 2 -2 -2 -25 -8 -52 -7 -29 -12 -131 -13 -246 0 -108 -4 -189
-7 -180 -16 42 -39 212 -39 284 0 45 -4 78 -10 78 -15 0 -12 -155 5 -253 8
-47 27 -123 41 -169 24 -74 27 -98 26 -228 0 -108 2 -132 8 -95 5 28 9 91 9
142 1 50 5 93 9 95 16 7 103 129 205 290 98 154 106 170 95 193 -9 21 -8 28 7
45 17 18 16 59 -2 106 -8 22 10 17 99 -25z m838 -28 c0 -34 -5 -46 -31 -67
-35 -30 -64 -39 -105 -34 -26 3 -29 7 -30 38 -1 45 12 70 37 70 23 0 95 35
105 51 11 18 24 -12 24 -58z m-3171 32 c22 -13 51 -27 65 -31 32 -8 32 -8 40
-66 l7 -48 -42 0 c-42 0 -134 41 -142 64 -5 12 21 106 29 106 2 0 22 -11 43
-25z m1171 -7 c0 -16 -3 -19 -11 -11 -6 6 -8 16 -5 22 11 17 16 13 16 -11z
m780 -3 c0 -8 -4 -17 -10 -20 -6 -4 -10 5 -10 20 0 15 4 24 10 20 6 -3 10 -12
10 -20z m-710 -36 c25 -41 29 -54 19 -65 -9 -11 -9 -18 -1 -26 7 -7 12 -26 12
-43 0 -43 -28 -201 -45 -255 -13 -43 -14 -42 -8 55 5 88 -10 319 -23 368 -10
34 15 16 46 -34z m2080 6 c0 -25 -2 -45 -5 -45 -16 0 -75 30 -75 39 0 9 59 51
73 51 4 0 7 -20 7 -45z m-2180 -15 c0 -27 -17 -34 -29 -12 -7 13 -7 22 1 30
15 15 28 6 28 -18z m857 4 c8 -21 -13 -42 -28 -27 -13 13 -5 43 11 43 6 0 13
-7 17 -16z m961 -15 c-2 -6 -8 -10 -13 -10 -5 0 -11 4 -13 10 -2 6 4 11 13 11
9 0 15 -5 13 -11z m280 -59 l14 -54 -32 -26 c-28 -23 -31 -30 -22 -47 10 -17
-2 -38 -84 -154 -53 -74 -98 -136 -101 -139 -13 -13 109 300 157 405 10 22 21
48 24 58 10 32 31 12 44 -43z m-3295 -65 c19 -44 65 -147 101 -229 36 -82 64
-151 63 -153 -4 -3 -169 211 -200 258 -15 23 -16 32 -7 49 10 19 8 25 -20 49
-32 26 -32 27 -20 71 16 59 32 79 41 54 4 -11 23 -55 42 -99z m1099 65 c3 0
14 7 22 16 9 8 20 13 26 9 10 -6 2 -161 -10 -184 -4 -8 -19 22 -38 80 -17 52
-33 103 -37 114 -4 13 0 10 11 -7 10 -16 22 -28 26 -28z m887 -67 l-14 -98 -3
94 c-3 103 2 131 20 113 8 -8 7 -37 -3 -109z m-745 55 c3 -29 5 -78 5 -108
l-1 -55 -14 70 c-15 82 -18 145 -5 145 4 0 11 -24 15 -52z m510 15 c-2 -16 -8
-55 -12 -88 l-7 -60 -118 -3 c-89 -2 -118 0 -121 10 -3 7 -7 43 -9 81 l-5 67
75 0 c66 0 75 -2 80 -20 3 -11 9 -20 13 -20 4 0 10 9 13 20 3 11 12 20 21 20
9 0 16 -8 16 -20 0 -13 7 -20 20 -20 16 0 20 7 20 30 0 17 4 30 10 30 5 0 7
-12 4 -27z m391 13 c8 10 0 -25 -18 -78 -17 -54 -35 -98 -39 -98 -4 0 -8 43
-8 95 l0 95 25 -16 c24 -16 27 -16 40 2z m1326 -72 c20 -12 39 -33 42 -46 3
-13 20 -131 38 -263 l31 -240 -12 -235 c-6 -129 -13 -240 -15 -247 -3 -8 -21
-7 -72 4 -37 8 -72 19 -76 23 -4 4 0 63 9 131 27 200 23 320 -15 476 -18 73
-36 135 -41 138 -20 12 -19 -19 1 -97 19 -74 20 -90 9 -150 -12 -71 -8 -111
18 -166 14 -31 13 -49 -2 -200 -10 -92 -21 -170 -25 -175 -10 -10 -154 -37
-199 -37 -51 0 -97 31 -123 82 -21 42 -22 50 -16 281 3 130 2 237 -2 237 -15
0 -21 -90 -21 -306 l0 -212 -26 -31 c-27 -33 -54 -38 -100 -21 l-27 11 7 117
c4 64 13 177 21 250 9 96 10 157 3 220 -10 83 -6 216 8 275 4 16 2 27 -4 27
-6 0 -14 -16 -18 -35 -3 -19 -10 -38 -15 -41 -11 -6 -11 -10 0 98 10 93 24
124 68 150 l28 16 -1 -36 c0 -21 -7 -47 -14 -59 -12 -19 -11 -37 7 -136 20
-109 66 -237 85 -237 18 0 99 89 187 208 76 102 90 126 85 148 -5 19 -1 29 16
41 20 14 21 21 15 71 l-7 55 59 -33 c32 -18 74 -43 94 -56z m-2252 -104 c13
-91 21 -185 19 -210 l-4 -45 -29 60 c-21 44 -30 79 -33 133 -5 86 7 248 17
236 4 -5 18 -83 30 -174z m1794 128 c-8 -29 -17 -108 -20 -176 -3 -68 -9 -119
-14 -115 -4 4 -14 49 -22 100 -13 87 -13 93 5 111 16 16 17 22 7 46 -11 24
-10 29 16 56 16 17 32 30 35 30 4 0 1 -24 -7 -52z m-3118 -4 c-6 -39 -3 -49
16 -70 18 -19 20 -26 10 -38 -16 -19 -23 -9 143 -221 l141 -180 3 -115 c5
-151 -14 -353 -38 -407 -26 -58 -65 -77 -144 -68 -80 8 -148 25 -162 39 -6 6
-17 65 -23 131 -11 111 -10 124 10 201 21 82 21 84 4 159 -18 75 -18 77 3 172
20 89 21 126 1 106 -4 -4 -22 -70 -38 -145 -37 -167 -39 -237 -10 -499 11
-105 17 -195 12 -199 -10 -10 -131 -36 -137 -29 -8 8 -36 423 -36 535 0 112
42 483 61 542 12 38 54 72 130 106 30 14 56 25 58 25 2 1 0 -20 -4 -45z m340
5 c20 -31 24 -44 15 -54 -9 -11 -7 -20 9 -42 l21 -28 -20 -125 c-26 -156 -40
-194 -33 -85 5 70 -6 222 -24 338 -3 20 -3 37 1 37 3 0 17 -18 31 -41z m1823
-97 c4 -134 3 -138 -26 -203 -45 -100 -57 -100 -48 2 8 99 34 309 41 327 2 6
10 12 17 12 10 0 14 -34 16 -138z m-2017 101 c19 -10 59 -20 89 -23 l55 -5 7
-55 c9 -83 9 -300 -1 -300 -4 0 -30 51 -56 113 -27 61 -68 151 -92 200 -24 48
-42 87 -40 87 2 0 19 -8 38 -17z m3106 -45 c-24 -29 -50 -64 -57 -77 -16 -32
-26 -15 -35 61 l-7 56 38 -5 c22 -2 50 0 64 6 43 17 43 12 -3 -41z m-2833 10
c43 -38 56 -80 55 -173 -1 -54 -2 -56 -9 -22 -7 38 -16 54 -25 45 -3 -3 0 -39
7 -81 10 -65 9 -101 -7 -229 l-18 -153 26 -181 c28 -187 32 -249 19 -258 -4
-2 -24 -7 -44 -11 -34 -7 -41 -4 -74 29 -33 33 -36 40 -31 79 19 153 28 359
20 426 -8 58 -7 80 4 102 15 30 48 192 59 289 5 44 3 64 -7 76 -8 9 -12 27
-11 39 2 13 -2 26 -7 30 -13 7 -15 25 -3 25 5 0 25 -15 46 -32z m2736 -127
l11 -44 41 62 c22 34 43 60 45 57 10 -10 -103 -306 -117 -306 -14 0 -22 137
-15 233 8 96 10 96 35 -2z m-1325 -178 c-5 -22 -9 -23 -110 -23 l-105 0 0 29
c0 16 -3 43 -7 61 l-6 33 106 -7 c104 -6 106 -6 114 16 6 18 9 11 11 -31 2
-30 1 -65 -3 -78z m1076 -111 c-1 -45 -6 -115 -10 -155 l-6 -72 -59 -3 -59 -3
7 28 c16 70 17 142 3 208 -9 38 -13 73 -10 78 2 4 35 7 71 5 l67 -3 -4 -83z
m-3165 46 c-4 -13 -9 -83 -13 -155 -3 -77 -10 -133 -16 -133 -6 0 -8 54 -4
153 3 83 6 153 7 155 0 1 7 2 16 2 12 0 15 -6 10 -22z m753 -108 c1 -90 21
-279 47 -442 19 -123 16 -162 -12 -166 -20 -3 -22 3 -28 86 -3 48 -15 141 -26
206 -23 135 -25 222 -8 349 14 106 26 92 27 -33z m2465 8 c4 -43 0 -130 -9
-213 -8 -77 -15 -167 -15 -200 0 -79 -8 -105 -31 -105 -24 0 -24 -14 6 274 14
131 25 258 25 283 0 69 16 42 24 -39z m-1138 -30 c-4 -46 -9 -104 -12 -130
l-6 -48 -83 0 -84 0 -5 33 c-9 56 -15 215 -9 221 4 3 51 6 106 6 l99 0 -6 -82z
m1694 -85 c-1 -31 -3 -35 -11 -20 -6 9 -7 26 -4 37 10 30 15 24 15 -17z
m-3570 -40 c0 -17 -4 -35 -10 -38 -6 -4 -10 14 -10 47 0 38 3 49 10 38 5 -8
10 -29 10 -47z m635 -18 l30 -25 -37 0 c-34 0 -38 3 -38 25 0 31 7 31 45 0z
m1215 -114 c0 -21 -3 -53 -6 -70 l-6 -31 -68 0 -67 0 -7 53 c-11 93 -16 87 74
87 l80 0 0 -39z m1076 -63 c-4 -40 -9 -90 -12 -110 l-6 -38 -99 0 c-54 0 -99
2 -99 4 0 6 70 199 76 208 3 4 37 8 76 8 l70 0 -6 -72z m-3125 -157 c10 -135
16 -168 31 -183 13 -13 18 -33 18 -78 0 -37 7 -74 17 -93 14 -29 15 -69 9
-408 l-7 -377 64 -6 65 -7 6 -37 c3 -20 9 -47 12 -59 l6 -23 -156 0 -156 0 0
55 c0 52 1 55 25 55 l25 0 2 188 c1 103 0 396 -1 652 -2 256 0 481 4 500 8 34
8 34 16 10 4 -14 13 -99 20 -189z m1003 151 c14 -51 16 -134 16 -660 l0 -602
34 0 c19 0 37 -4 40 -9 3 -5 3 -43 -1 -85 l-6 -76 -255 0 -254 0 6 23 c3 12 6
39 6 60 l0 37 150 0 150 0 -3 575 -2 575 -27 0 c-16 0 -28 3 -28 8 -1 4 -7 50
-14 102 -8 52 -12 98 -9 103 2 4 44 7 92 7 l88 0 17 -58z m171 -61 c-3 -5 -24
-24 -48 -41 l-42 -32 45 41 c45 41 56 49 45 32z m1690 -80 c-3 -3 -27 17 -53
44 l-47 48 53 -43 c28 -24 50 -46 47 -49z m-1686 9 c-23 -40 -42 -50 -55 -28
-7 11 50 68 69 68 4 0 -2 -18 -14 -40z m1647 -11 c3 -6 0 -18 -8 -26 -14 -13
-18 -11 -37 20 -30 49 -27 62 9 37 16 -11 32 -26 36 -31z m-791 -4 c0 -17 -8
-20 -59 -23 -62 -3 -83 6 -72 33 5 13 18 15 68 13 55 -3 63 -5 63 -23z m-165
-5 c-8 -5 -19 -10 -25 -10 -5 0 -3 5 5 10 8 5 20 10 25 10 6 0 3 -5 -5 -10z
m230 0 c12 -8 11 -10 -7 -10 -13 0 -23 5 -23 10 0 13 11 13 30 0z m-970 -294
c0 -295 -19 -737 -33 -751 -6 -7 -7 98 -3 309 3 176 6 407 6 514 0 172 2 193
15 182 13 -10 15 -52 15 -254z m2040 254 c8 -5 12 -12 9 -15 -8 -8 -39 5 -39
16 0 11 11 11 30 -1z m-2310 -65 c0 -52 -3 -65 -15 -65 -20 0 -31 28 -16 43 6
6 11 28 11 49 0 21 5 38 10 38 6 0 10 -28 10 -65z m1254 34 c3 -17 6 -51 6
-75 0 -32 4 -44 15 -44 8 0 15 -7 15 -15 0 -9 -7 -18 -15 -21 -13 -5 -15 -48
-15 -299 l0 -294 42 -3 c60 -4 63 -28 3 -28 l-46 0 3 -92 3 -93 47 -3 46 -3 7
-92 c4 -51 5 -105 3 -122 -3 -29 -4 -30 -68 -33 -36 -2 -147 -1 -247 3 l-183
7 0 72 c0 39 3 94 6 123 l7 52 56 3 56 3 6 50 c5 43 6 45 7 13 3 -65 7 -68 82
-68 53 0 69 4 74 16 8 20 8 208 0 228 -5 12 -21 16 -75 16 l-69 0 0 -41 c0
-24 -4 -38 -10 -34 -5 3 -10 22 -10 41 l0 34 -49 0 c-28 0 -53 5 -56 10 -4 6
10 10 34 10 75 0 71 -11 70 214 -1 224 -5 250 -37 254 -40 6 -26 32 18 32 l40
0 2 -247 3 -248 65 3 c35 1 68 6 72 10 5 5 5 108 2 229 l-7 222 -26 6 c-23 6
-24 8 -8 16 10 6 30 9 45 7 l27 -3 -4 -416 c-2 -263 0 -419 6 -422 18 -11 23
106 23 489 l0 374 -102 0 c-132 0 -180 8 -176 28 2 12 26 15 138 16 l135 1 3
73 c2 52 7 72 16 72 8 0 16 -14 20 -31z m986 -25 l0 -55 -47 3 -48 3 -3 47 -3
47 43 4 c24 2 46 4 51 5 4 1 7 -23 7 -54z m-2507 11 c33 -33 37 -34 87 -28
l53 6 -6 -84 c-9 -125 -36 -444 -43 -521 l-7 -68 -37 -10 c-127 -34 -265 -39
-388 -14 -124 25 -118 15 -125 210 -4 92 -5 170 -3 172 2 2 21 -6 42 -17 48
-26 67 -14 58 36 -5 28 -4 32 10 27 27 -11 29 23 6 109 -21 74 -28 153 -15
165 2 3 42 -3 87 -12 46 -9 99 -16 118 -16 39 0 93 29 112 60 7 11 14 20 14
20 1 0 18 -16 37 -35z m2365 -12 l-3 -48 -47 -3 -48 -3 0 50 0 51 51 0 50 0
-3 -47z m444 22 c44 -57 105 -67 244 -40 43 8 79 13 82 11 2 -2 -6 -34 -17
-71 -27 -87 -28 -125 -2 -125 17 0 19 -6 18 -42 l-2 -43 39 1 39 2 -7 -152
c-6 -118 -11 -154 -22 -163 -28 -21 -154 -36 -258 -30 -106 5 -235 32 -241 51
-5 13 -45 403 -52 502 l-5 71 51 -5 c47 -4 53 -2 78 27 15 17 29 31 31 31 2 0
13 -11 24 -25z m441 4 c26 -6 46 -14 43 -16 -8 -8 -126 19 -126 29 0 5 8 7 18
4 9 -3 39 -10 65 -17z m-653 -41 c0 -13 2 -54 5 -93 4 -58 3 -65 -6 -42 -7 18
-16 26 -25 23 -18 -7 -19 56 -3 103 13 36 29 41 29 9z m639 0 l51 -11 0 -69
c0 -68 0 -68 -48 -118 -48 -50 -91 -68 -77 -33 13 36 18 143 6 143 -6 0 -14
-14 -18 -30 -3 -17 -10 -33 -16 -37 -6 -4 -7 7 -3 30 12 63 36 137 46 137 4 0
31 -5 59 -12z m-3025 -86 c6 -33 5 -64 -2 -85 -10 -31 -10 -30 -12 23 l-3 55
-16 -80 -16 -80 -3 60 c-2 33 0 84 3 113 5 42 10 53 23 50 12 -2 20 -19 26
-56z m-611 1 c8 -16 17 -41 21 -58 4 -16 9 -38 12 -47 9 -32 -11 -19 -24 15
-11 27 -14 30 -23 15 -8 -15 -2 -69 17 -130 10 -33 -25 -19 -71 27 -45 44 -45
45 -45 114 l0 69 38 10 c56 15 60 14 75 -15z m2762 -303 l0 -265 -55 0 c-37 0
-54 4 -53 12 2 7 3 124 3 261 1 138 4 253 8 256 4 4 27 6 52 4 l45 -3 0 -265z
m150 203 c-1 -29 -2 -150 -3 -268 l-2 -215 -50 0 -50 0 0 271 0 270 53 -3 52
-3 0 -52z m-1107 -219 l2 -201 -42 1 -43 1 -3 194 c-3 212 -2 213 53 209 l30
-3 3 -201z m1228 45 c8 -74 17 -250 21 -391 l6 -258 -37 0 -36 0 0 258 c0 311
10 546 22 534 5 -5 16 -69 24 -143z m-1394 54 c2 -49 3 -134 3 -190 l0 -101
-37 -4 -38 -4 0 41 c0 22 7 108 15 190 8 83 15 151 15 153 0 1 9 2 20 2 18 0
20 -7 22 -87z m-1022 -188 l0 -205 -30 0 -30 0 0 198 c0 109 3 202 7 205 3 4
17 7 30 7 l23 0 0 -205z m1719 -226 c11 -75 21 -150 21 -168 0 -28 -3 -31 -30
-31 l-30 0 0 177 c0 101 4 173 9 168 4 -6 18 -71 30 -146z m905 79 c39 -7 72
-12 73 -13 12 -7 33 -310 33 -472 l0 -201 -50 -7 c-62 -8 -107 1 -120 25 -6
10 -10 76 -10 147 0 70 -7 205 -15 298 -20 228 -19 249 2 241 9 -4 48 -12 87
-18z m-2718 -56 c-12 -11 -17 7 -9 34 l8 29 3 -28 c2 -16 1 -31 -2 -35z m3008
12 c13 -98 6 -331 -16 -507 l-21 -177 -46 0 c-78 0 -74 -13 -76 282 -1 187 -6
287 -17 346 -17 94 -20 90 62 95 30 2 67 4 81 5 24 2 27 -2 33 -44z m-2264
-19 c0 -8 -7 -15 -15 -15 -16 0 -20 12 -8 23 11 12 23 8 23 -8z m378 -82 l-3
-98 -39 -3 c-21 -2 -43 1 -48 6 -7 7 -8 45 -3 101 l7 91 44 0 45 0 -3 -97z
m160 0 l-3 -98 -45 0 -45 0 -3 98 -3 97 51 0 51 0 -3 -97z m-1812 38 c-3 -20
-6 -66 -6 -103 0 -63 -2 -68 -21 -68 -21 0 -22 3 -15 61 3 34 6 83 6 110 0 43
2 47 21 42 18 -5 20 -11 15 -42z m3133 -138 c0 -30 -3 -53 -9 -53 -6 0 -9 46
-8 123 1 112 2 116 8 52 4 -38 8 -94 9 -122z m-318 167 l120 0 -3 -112 -3
-113 -130 1 -130 0 -5 105 c-6 116 -4 133 17 125 8 -3 68 -6 134 -6z m-2668
-16 c38 -4 67 -12 67 -18 0 -6 -7 -74 -15 -151 -18 -172 -23 -405 -11 -546 8
-102 7 -108 -13 -128 -17 -17 -25 -19 -42 -11 -37 20 -45 55 -27 124 l16 62
-44 189 c-46 196 -65 376 -50 459 6 33 10 37 29 32 12 -3 52 -9 90 -12z m267
-16 c0 -18 -5 -67 -11 -108 -20 -153 -39 -357 -39 -430 0 -81 15 -115 83 -187
25 -26 27 -33 13 -33 -30 0 -70 27 -118 78 -50 53 -54 63 -62 152 -3 30 -15
138 -27 240 -15 122 -20 204 -15 241 l7 56 72 10 c40 5 78 10 85 11 7 1 12
-10 12 -30z m855 -84 c0 -69 -2 -79 -19 -82 -31 -6 -36 10 -26 78 13 82 17 93
33 87 8 -2 12 -28 12 -83z m759 14 c11 -62 4 -80 -31 -76 -26 3 -28 7 -31 52
-4 62 2 78 30 74 19 -2 25 -12 32 -50z m-1400 -4 c3 -9 6 -44 6 -80 0 -75 -3
-77 -115 -72 l-70 3 -3 83 -3 82 90 0 c72 0 90 -3 95 -16z m656 -234 l0 -110
-51 0 -51 0 5 33 c3 17 9 67 13 110 l6 77 39 0 39 0 0 -110z m1094 48 c3 -13
6 -56 6 -95 l0 -73 -42 4 c-42 3 -43 5 -46 42 -2 22 -1 63 3 92 6 51 7 52 40
52 25 0 34 -5 39 -22z m-2139 -116 c6 -39 5 -43 -11 -40 -11 2 -19 9 -18 16 1
6 2 33 3 60 3 53 13 38 26 -36z m2905 13 l0 -65 -235 0 -235 0 0 65 0 65 235
0 235 0 0 -65z m460 -5 c0 -57 -1 -60 -25 -60 -24 0 -24 2 -19 48 8 64 11 72
29 72 12 0 15 -13 15 -60z m-3350 -152 c0 -29 -7 -71 -15 -93 -8 -22 -15 -56
-16 -75 -1 -34 -2 -33 -10 10 -4 25 -8 82 -8 128 -1 81 -1 82 24 82 24 0 25
-3 25 -52z m3010 -98 c12 -7 10 -14 -11 -44 -34 -48 -97 -96 -125 -96 -31 0
-30 5 7 47 17 20 38 51 47 69 16 35 49 45 82 24z m-1631 -75 c25 -13 55 -30
66 -39 17 -13 18 -17 5 -26 -25 -16 -114 -11 -176 11 -32 11 -90 26 -129 33
-58 10 -71 16 -73 33 -3 23 19 32 83 34 22 0 58 6 80 13 37 11 42 11 69 -11
16 -13 50 -35 75 -48z m529 47 c73 -14 82 -19 82 -38 0 -27 -17 -34 -80 -34
-26 0 -76 -9 -111 -20 -90 -27 -140 -33 -173 -21 -23 10 -26 14 -16 26 7 9 40
29 74 45 34 16 71 39 81 50 13 14 26 19 40 15 11 -3 57 -14 103 -23z m-1860
-28 c46 -61 114 -104 167 -104 29 0 47 -6 59 -19 25 -27 12 -41 -37 -41 -59 1
-117 30 -156 79 -36 46 -46 46 -56 0 -5 -23 -9 -28 -16 -18 -11 17 -12 149 -1
149 4 -1 22 -21 40 -46z m2993 -102 c-9 -14 -11 -12 -17 16 -3 17 -9 32 -12
32 -4 0 -27 -21 -53 -46 -55 -54 -130 -81 -177 -63 l-27 11 30 23 c19 16 37
22 51 19 36 -9 121 35 164 84 22 25 41 50 42 56 1 6 3 -17 5 -52 2 -34 -1 -70
-6 -80z m179 65 c9 -101 -31 -156 -76 -104 -12 14 -21 34 -19 44 26 125 25
124 59 121 30 -3 31 -5 36 -61z m-2380 -89 c7 -42 9 -81 5 -87 -3 -6 -24 -20
-46 -31 -35 -18 -42 -19 -67 -6 -59 30 -63 42 -40 127 l20 76 58 -1 57 -1 13
-77z m1549 4 l21 -77 -30 -28 c-34 -30 -58 -34 -99 -13 -49 26 -54 39 -47 118
l7 73 63 2 63 1 22 -76z m861 -56 c0 -80 -76 -125 -119 -70 -12 15 -21 41 -21
61 l0 34 30 -22 c25 -19 33 -21 54 -11 14 6 31 20 38 32 7 11 14 20 15 20 2 0
3 -20 3 -44z m-3395 -2 c24 -16 49 -15 89 1 17 7 18 5 12 -21 -11 -43 -34 -74
-55 -74 -30 0 -61 32 -70 73 -10 42 -9 43 24 21z"/>
<path d="M885 5141 c-49 -21 -58 -45 -68 -182 -5 -72 -5 -135 0 -139 4 -5 51
-1 103 8 l95 17 3 80 c1 44 7 90 13 101 30 59 -78 144 -146 115z m55 -176 l0
-65 -35 0 -35 0 0 59 c0 62 4 67 53 70 14 1 17 -8 17 -64z"/>
<path d="M561 4944 c-16 -20 -21 -41 -21 -82 l0 -55 61 7 c33 3 65 8 70 11 5
3 6 29 3 58 -8 83 -70 116 -113 61z"/>
<path d="M3154 5129 c-58 -17 -102 -91 -70 -118 12 -10 16 -33 16 -96 l0 -83
88 -16 c48 -9 93 -16 100 -16 11 0 13 26 10 133 -4 147 -14 177 -70 196 -35
12 -32 12 -74 0z m94 -176 c3 -61 2 -63 -22 -63 -47 0 -51 6 -48 71 l4 60 31
-3 c32 -3 32 -3 35 -65z"/>
<path d="M3466 4947 c-23 -17 -39 -107 -23 -123 7 -6 38 -14 70 -17 l57 -6 0
58 c0 44 -5 62 -20 79 -23 25 -57 28 -84 9z"/>
<path d="M963 4511 c-72 -9 -134 -19 -137 -21 -2 -3 -8 -119 -12 -258 -4 -139
-11 -255 -15 -258 -5 -3 -9 -21 -9 -41 l0 -35 43 5 c23 4 83 9 132 12 142 10
145 11 145 51 0 19 -4 34 -10 34 -6 0 -10 80 -10 220 0 140 4 220 10 220 12 0
14 77 3 83 -5 2 -67 -4 -140 -12z m78 -314 c-2 -129 -7 -194 -15 -199 -6 -4
-44 -8 -83 -8 l-73 0 0 194 0 194 83 9 c45 5 84 7 87 5 3 -2 3 -90 1 -195z"/>
<path d="M460 4411 l-135 -16 -3 -250 c-2 -140 -7 -254 -13 -259 -14 -15 -11
-76 4 -76 6 0 83 7 170 17 l157 16 0 37 c0 30 -4 39 -21 43 -20 6 -21 9 -15
209 3 112 8 224 12 251 5 36 3 47 -7 46 -8 -1 -75 -9 -149 -18z m90 -290 c0
-105 -3 -192 -7 -194 -5 -3 -45 -8 -90 -12 l-83 -7 0 190 0 190 78 9 c42 6 83
11 90 12 9 1 12 -43 12 -188z"/>
<path d="M3007 4534 c-10 -10 -9 -72 2 -78 12 -8 2 -415 -11 -442 -5 -11 -8
-34 -6 -50 l3 -29 149 -13 c81 -7 154 -11 162 -8 16 6 19 47 4 62 -6 6 -11
115 -12 264 l-3 255 -100 17 c-164 27 -181 29 -188 22z m158 -137 l70 -12 0
-195 0 -195 -65 2 c-121 5 -110 -16 -110 213 0 184 1 200 18 199 9 0 49 -6 87
-12z"/>
<path d="M3499 4430 c-1 -3 0 -114 1 -248 2 -240 2 -243 -19 -249 -16 -4 -21
-13 -21 -38 0 -30 2 -33 43 -38 99 -13 288 -29 292 -25 3 2 0 87 -6 189 -6
101 -8 226 -4 277 5 72 3 93 -7 96 -33 9 -278 41 -279 36z m219 -145 c9 -3 12
-50 12 -185 l0 -181 -82 7 c-46 3 -86 8 -90 11 -5 2 -8 89 -8 192 l0 188 78
-13 c42 -8 83 -16 90 -19z"/>
<path d="M1674 3640 c28 -11 52 -17 54 -15 7 7 -64 35 -85 35 -10 -1 4 -10 31
-20z"/>
<path d="M2564 3674 c-19 -15 -19 -15 1 -6 11 5 27 12 35 15 13 5 13 6 -1 6
-8 1 -24 -6 -35 -15z"/>
<path d="M2603 3645 c-18 -8 -33 -17 -33 -20 0 -3 9 -1 19 5 11 5 37 14 58 19
27 7 31 9 13 10 -14 0 -40 -6 -57 -14z"/>
<path d="M2660 3420 c0 -13 5 -20 13 -17 6 2 12 10 12 17 0 7 -6 15 -12 18 -8
2 -13 -5 -13 -18z"/>
<path d="M2535 3421 c-6 -11 9 -23 19 -14 9 9 7 23 -3 23 -6 0 -12 -4 -16 -9z"/>
<path d="M2597 3393 c-3 -5 -8 -23 -12 -40 -6 -28 -4 -33 12 -33 16 0 18 6 15
40 -4 40 -7 46 -15 33z"/>
<path d="M2590 3280 c0 -5 15 -10 34 -10 19 0 38 5 41 10 4 6 -10 10 -34 10
-23 0 -41 -4 -41 -10z"/>
<path d="M585 3543 c-39 -20 -65 -43 -77 -68 -7 -15 -3 -13 15 6 36 40 75 62
121 70 41 6 41 7 6 7 -19 1 -48 -6 -65 -15z"/>
<path d="M3669 3483 c-13 -16 -12 -17 4 -4 16 13 21 21 13 21 -2 0 -10 -8 -17
-17z"/>
<path d="M3830 3486 c0 -2 8 -10 18 -17 15 -13 16 -12 3 4 -13 16 -21 21 -21
13z"/>
<path d="M3851 3134 c0 -11 3 -14 6 -6 3 7 2 16 -1 19 -3 4 -6 -2 -5 -13z"/>
<path d="M652 3289 c2 -7 10 -15 17 -17 8 -3 12 1 9 9 -2 7 -10 15 -17 17 -8
3 -12 -1 -9 -9z"/>
<path d="M770 3285 c0 -9 5 -15 11 -13 6 2 11 8 11 13 0 5 -5 11 -11 13 -6 2
-11 -4 -11 -13z"/>
<path d="M727 3274 c-14 -14 -8 -74 8 -74 9 0 15 9 14 23 -1 31 -13 60 -22 51z"/>
<path d="M680 3171 c0 -14 45 -25 66 -17 22 8 17 12 -28 20 -24 4 -38 3 -38
-3z"/>
<path d="M3575 3301 c-7 -12 12 -24 25 -16 11 7 4 25 -10 25 -5 0 -11 -4 -15
-9z"/>
<path d="M3702 3299 c2 -6 8 -10 13 -10 5 0 11 4 13 10 2 6 -4 11 -13 11 -9 0
-15 -5 -13 -11z"/>
<path d="M3636 3269 c-2 -8 -6 -26 -9 -41 -3 -22 0 -28 15 -28 16 0 18 5 12
38 -8 43 -12 50 -18 31z"/>
<path d="M3657 3172 c-42 -4 -41 -22 1 -22 29 0 60 15 46 21 -5 3 -26 3 -47 1z"/>
<path d="M1665 3420 c-4 -6 -3 -16 3 -22 6 -6 12 -6 17 2 4 6 3 16 -3 22 -6 6
-12 6 -17 -2z"/>
<path d="M1803 3415 c-3 -9 -3 -18 0 -21 9 -9 27 6 27 22 0 19 -19 18 -27 -1z"/>
<path d="M1750 3330 c-12 -8 -11 -10 8 -10 12 0 22 5 22 10 0 13 -11 13 -30 0z"/>
<path d="M1710 3281 c0 -17 20 -23 48 -16 l27 8 -25 7 c-36 11 -50 11 -50 1z"/>
<path d="M3533 3125 c0 -22 2 -30 4 -17 2 12 2 30 0 40 -3 9 -5 -1 -4 -23z"/>
<path d="M836 3065 c4 -27 8 -52 10 -54 8 -9 2 65 -7 84 -6 13 -7 4 -3 -30z"/>
<path d="M1324 3004 c-18 -14 -18 -15 4 -4 12 6 22 13 22 15 0 8 -5 6 -26 -11z"/>
<path d="M1371 2573 c-17 -60 -34 -123 -37 -140 -4 -18 -8 -33 -9 -33 -1 0
-19 7 -40 16 -23 9 -48 13 -64 9 -23 -6 -20 -9 29 -21 30 -8 60 -21 66 -30 7
-8 19 -43 27 -77 20 -78 44 -137 57 -137 6 0 5 9 -1 24 -8 17 -8 38 0 77 10
43 8 67 -6 135 l-17 82 27 89 c31 100 32 113 13 113 -9 0 -25 -38 -45 -107z
m13 -228 c4 -19 3 -43 -3 -52 -7 -14 -11 -10 -20 23 -14 52 -14 64 3 64 8 0
17 -15 20 -35z"/>
<path d="M1807 2423 c-13 -12 -7 -23 13 -23 11 0 20 7 20 15 0 15 -21 21 -33
8z"/>
<path d="M1220 2360 c0 -5 19 -10 43 -10 31 0 38 3 27 10 -20 13 -70 13 -70 0z"/>
<path d="M1230 2310 c0 -5 19 -10 43 -9 32 0 37 2 22 9 -28 12 -65 12 -65 0z"/>
<path d="M1810 2165 c0 -8 7 -15 15 -15 8 0 15 7 15 15 0 8 -7 15 -15 15 -8 0
-15 -7 -15 -15z"/>
<path d="M1480 2139 c0 -14 91 -129 102 -129 12 0 4 13 -50 83 -47 59 -52 64
-52 46z"/>
<path d="M1780 1705 c-19 -14 -30 -25 -25 -25 6 0 24 11 40 25 39 31 30 31
-15 0z"/>
<path d="M2476 3004 c-10 -25 1 -29 14 -5 6 12 7 21 1 21 -5 0 -12 -7 -15 -16z"/>
<path d="M2940 2677 c0 -7 14 -53 31 -103 l30 -89 -17 -73 c-11 -49 -14 -89
-10 -125 4 -29 7 -70 6 -92 -1 -52 12 -37 39 45 41 122 39 161 -10 314 -25 78
-49 136 -56 136 -7 0 -13 -6 -13 -13z"/>
<path d="M3084 2444 c-18 -15 -17 -15 15 -10 18 3 37 6 42 6 5 0 9 5 9 10 0
16 -44 12 -66 -6z"/>
<path d="M2562 2423 c4 -21 33 -25 33 -3 0 8 -8 16 -18 18 -14 3 -18 -1 -15
-15z"/>
<path d="M3094 2388 c-3 -4 12 -8 32 -8 21 0 34 3 31 7 -10 9 -58 10 -63 1z"/>
<path d="M2554 2199 c-10 -17 13 -36 27 -22 12 12 4 33 -11 33 -5 0 -12 -5
-16 -11z"/>
<path d="M2811 1214 c0 -11 3 -14 6 -6 3 7 2 16 -1 19 -3 4 -6 -2 -5 -13z"/>
<path d="M2822 1165 c0 -11 8 -72 18 -135 15 -91 18 -100 14 -45 -5 71 -31
217 -32 180z"/>
<path d="M2862 880 c0 -19 2 -27 5 -17 2 9 2 25 0 35 -3 9 -5 1 -5 -18z"/>
<path d="M2871 804 c0 -11 3 -14 6 -6 3 7 2 16 -1 19 -3 4 -6 -2 -5 -13z"/>
<path d="M2881 434 c0 -11 3 -14 6 -6 3 7 2 16 -1 19 -3 4 -6 -2 -5 -13z"/>
<path d="M717 2383 c-11 -11 -8 -31 6 -36 21 -8 39 7 31 26 -6 17 -25 22 -37
10z"/>
<path d="M713 2184 c-3 -8 -1 -20 6 -27 14 -14 47 15 37 32 -10 16 -36 13 -43
-5z"/>
</g>
</svg>
